<svg width="315" height="90" viewBox="0 0 315 90" fill="none" xmlns="http://www.w3.org/2000/svg">
<rect x="0.5" y="0.5" width="314" height="89" rx="19.5" fill="white"/>
<rect x="0.5" y="0.5" width="314" height="89" rx="19.5" stroke="#E5F4F2"/>
<path d="M20 44.3902C20 32.8926 20 27.1437 23.5719 23.5719C27.1437 20 32.8926 20 44.3902 20H45.6098C57.1074 20 62.8563 20 66.4281 23.5719C70 27.1437 70 32.8926 70 44.3902V45.6098C70 57.1074 70 62.8563 66.4281 66.4281C62.8563 70 57.1074 70 45.6098 70H44.3902C32.8926 70 27.1437 70 23.5719 66.4281C20 62.8563 20 57.1074 20 45.6098V44.3902Z" fill="#E5F4F2"/>
<path opacity="0.2" d="M39.1678 54.0335C39.0933 54.1091 39.0045 54.1692 38.9066 54.2102C38.8087 54.2512 38.7037 54.2723 38.5975 54.2723C38.4914 54.2723 38.3863 54.2512 38.2884 54.2102C38.1906 54.1692 38.1018 54.1091 38.0273 54.0335L35.9665 51.9727C35.8909 51.8983 35.8309 51.8095 35.7899 51.7116C35.7489 51.6137 35.7278 51.5086 35.7278 51.4025C35.7278 51.2964 35.7489 51.1913 35.7899 51.0934C35.8309 50.9955 35.8909 50.9068 35.9665 50.8323L46.6006 40.1982L49.8018 43.3995L39.1678 54.0335Z" fill="#009379"/>
<path d="M53.8032 45.0001V49.802" stroke="#009379" stroke-width="1.44817" stroke-linecap="round" stroke-linejoin="round"/>
<path d="M51.4023 47.4009H56.2042" stroke="#009379" stroke-width="1.44817" stroke-linecap="round" stroke-linejoin="round"/>
<path d="M40.5981 36.1967V40.1982" stroke="#009379" stroke-width="1.44817" stroke-linecap="round" stroke-linejoin="round"/>
<path d="M38.5977 38.1974H42.5992" stroke="#009379" stroke-width="1.44817" stroke-linecap="round" stroke-linejoin="round"/>
<path d="M49.0015 50.6022V53.8035" stroke="#009379" stroke-width="1.44817" stroke-linecap="round" stroke-linejoin="round"/>
<path d="M47.4009 52.2028H50.6021" stroke="#009379" stroke-width="1.44817" stroke-linecap="round" stroke-linejoin="round"/>
<path d="M50.8449 35.9598L35.9687 50.8359C35.6562 51.1484 35.6562 51.6552 35.9687 51.9677L38.0378 54.0368C38.3503 54.3493 38.8571 54.3493 39.1696 54.0368L54.0457 39.1607C54.3583 38.8481 54.3583 38.3414 54.0457 38.0288L51.9767 35.9598C51.6641 35.6472 51.1574 35.6472 50.8449 35.9598Z" stroke="#009379" stroke-width="1.44817" stroke-linecap="round" stroke-linejoin="round"/>
<path d="M46.6006 40.1982L49.8018 43.3995" stroke="#009379" stroke-width="1.44817" stroke-linecap="round" stroke-linejoin="round"/>
<path d="M91.848 38.048H101.298V39.476H93.549V44.684H100.878V46.133H93.549V51.572H101.298V53H91.848V38.048ZM113.287 42.437V53H111.607V51.089C111.299 51.747 110.83 52.258 110.2 52.622C109.584 52.972 108.863 53.147 108.037 53.147C107.099 53.147 106.273 52.923 105.559 52.475C104.859 52.027 104.313 51.397 103.921 50.585C103.543 49.759 103.354 48.8 103.354 47.708C103.354 46.616 103.55 45.657 103.942 44.831C104.334 43.991 104.88 43.34 105.58 42.878C106.294 42.416 107.113 42.185 108.037 42.185C108.863 42.185 109.584 42.367 110.2 42.731C110.816 43.095 111.285 43.606 111.607 44.264V42.437H113.287ZM108.373 51.74C109.409 51.74 110.207 51.39 110.767 50.69C111.327 49.976 111.607 48.968 111.607 47.666C111.607 46.364 111.327 45.363 110.767 44.663C110.207 43.963 109.409 43.613 108.373 43.613C107.337 43.613 106.525 43.977 105.937 44.705C105.363 45.419 105.076 46.42 105.076 47.708C105.076 48.996 105.363 49.99 105.937 50.69C106.511 51.39 107.323 51.74 108.373 51.74ZM120.146 53.147C118.368 53.147 116.961 52.692 115.925 51.782L116.492 50.522C117.066 50.97 117.647 51.292 118.235 51.488C118.823 51.684 119.481 51.782 120.209 51.782C121.007 51.782 121.609 51.649 122.015 51.383C122.435 51.103 122.645 50.704 122.645 50.186C122.645 49.766 122.505 49.43 122.225 49.178C121.945 48.926 121.483 48.73 120.839 48.59L119.054 48.17C118.172 47.974 117.486 47.624 116.996 47.12C116.52 46.616 116.282 46.014 116.282 45.314C116.282 44.39 116.653 43.641 117.395 43.067C118.137 42.479 119.117 42.185 120.334 42.185C121.077 42.185 121.777 42.304 122.435 42.542C123.093 42.78 123.646 43.123 124.094 43.571L123.527 44.81C122.533 43.984 121.469 43.571 120.334 43.571C119.579 43.571 118.991 43.718 118.571 44.012C118.165 44.292 117.962 44.691 117.962 45.209C117.962 45.643 118.088 45.986 118.34 46.238C118.606 46.49 119.026 46.686 119.6 46.826L121.385 47.267C122.365 47.491 123.093 47.841 123.569 48.317C124.045 48.779 124.283 49.388 124.283 50.144C124.283 51.054 123.912 51.782 123.17 52.328C122.428 52.874 121.42 53.147 120.146 53.147ZM136.091 42.437L131.156 53.966C130.638 55.17 129.987 56.052 129.203 56.612C128.419 57.172 127.453 57.557 126.305 57.767L125.948 56.444C126.942 56.22 127.691 55.919 128.195 55.541C128.713 55.177 129.14 54.61 129.476 53.84L129.896 52.895L125.423 42.437H127.208L130.778 51.152L134.39 42.437H136.091ZM145.709 43.781V49.556C145.709 50.34 145.87 50.893 146.192 51.215C146.514 51.523 146.969 51.677 147.557 51.677C147.949 51.677 148.327 51.614 148.691 51.488V52.937C148.257 53.077 147.767 53.147 147.221 53.147C146.213 53.147 145.422 52.867 144.848 52.307C144.288 51.733 144.008 50.893 144.008 49.787V43.781H141.95V42.437H144.008V39.728L145.709 39.119V42.437H148.733V43.781H145.709ZM155.151 53.147C154.157 53.147 153.282 52.923 152.526 52.475C151.77 52.027 151.182 51.39 150.762 50.564C150.356 49.738 150.153 48.772 150.153 47.666C150.153 46.56 150.356 45.594 150.762 44.768C151.182 43.942 151.77 43.305 152.526 42.857C153.282 42.409 154.157 42.185 155.151 42.185C156.145 42.185 157.02 42.409 157.776 42.857C158.532 43.305 159.113 43.942 159.519 44.768C159.939 45.594 160.149 46.56 160.149 47.666C160.149 48.772 159.939 49.738 159.519 50.564C159.113 51.39 158.532 52.027 157.776 52.475C157.02 52.923 156.145 53.147 155.151 53.147ZM155.151 51.74C156.201 51.74 157.006 51.397 157.566 50.711C158.126 50.011 158.406 48.996 158.406 47.666C158.406 46.378 158.119 45.384 157.545 44.684C156.971 43.97 156.173 43.613 155.151 43.613C154.115 43.613 153.31 43.97 152.736 44.684C152.162 45.384 151.875 46.378 151.875 47.666C151.875 48.996 152.155 50.011 152.715 50.711C153.289 51.397 154.101 51.74 155.151 51.74ZM177.117 47.666H169.368C169.382 49.01 169.69 50.025 170.292 50.711C170.908 51.397 171.797 51.74 172.959 51.74C174.191 51.74 175.325 51.327 176.361 50.501L176.928 51.74C176.466 52.174 175.871 52.517 175.143 52.769C174.429 53.021 173.694 53.147 172.938 53.147C171.286 53.147 169.991 52.664 169.053 51.698C168.115 50.718 167.646 49.381 167.646 47.687C167.646 46.609 167.856 45.657 168.276 44.831C168.696 43.991 169.284 43.34 170.04 42.878C170.796 42.416 171.657 42.185 172.623 42.185C174.023 42.185 175.122 42.647 175.92 43.571C176.718 44.481 177.117 45.741 177.117 47.351V47.666ZM172.644 43.508C171.762 43.508 171.041 43.774 170.481 44.306C169.935 44.838 169.585 45.587 169.431 46.553H175.584C175.5 45.559 175.206 44.803 174.702 44.285C174.212 43.767 173.526 43.508 172.644 43.508ZM189.002 37.544V53H187.322V51.089C187.014 51.747 186.545 52.258 185.915 52.622C185.299 52.972 184.578 53.147 183.752 53.147C182.828 53.147 182.009 52.916 181.295 52.454C180.595 51.992 180.049 51.348 179.657 50.522C179.265 49.682 179.069 48.716 179.069 47.624C179.069 46.532 179.258 45.58 179.636 44.768C180.028 43.942 180.581 43.305 181.295 42.857C182.009 42.409 182.828 42.185 183.752 42.185C184.578 42.185 185.299 42.367 185.915 42.731C186.531 43.081 186.993 43.578 187.301 44.222V37.544H189.002ZM184.088 51.74C185.124 51.74 185.922 51.39 186.482 50.69C187.042 49.976 187.322 48.968 187.322 47.666C187.322 46.378 187.042 45.384 186.482 44.684C185.922 43.97 185.124 43.613 184.088 43.613C183.052 43.613 182.24 43.963 181.652 44.663C181.078 45.363 180.791 46.35 180.791 47.624C180.791 48.926 181.078 49.941 181.652 50.669C182.24 51.383 183.052 51.74 184.088 51.74ZM192.29 42.437H193.991V53H192.29V42.437ZM194.201 37.964V39.896H192.122V37.964H194.201ZM199.562 43.781V49.556C199.562 50.34 199.723 50.893 200.045 51.215C200.367 51.523 200.822 51.677 201.41 51.677C201.802 51.677 202.18 51.614 202.544 51.488V52.937C202.11 53.077 201.62 53.147 201.074 53.147C200.066 53.147 199.275 52.867 198.701 52.307C198.141 51.733 197.861 50.893 197.861 49.787V43.781H195.803V42.437H197.861V39.728L199.562 39.119V42.437H202.586V43.781H199.562Z" fill="#2D2D2D"/>
</svg>
