<svg width="315" height="90" viewBox="0 0 315 90" fill="none" xmlns="http://www.w3.org/2000/svg">
<rect x="0.5" y="0.5" width="314" height="89" rx="19.5" fill="white"/>
<rect x="0.5" y="0.5" width="314" height="89" rx="19.5" stroke="#E5F4F2"/>
<path d="M20 44.3902C20 32.8926 20 27.1437 23.5719 23.5719C27.1437 20 32.8926 20 44.3902 20H45.6098C57.1074 20 62.8563 20 66.4281 23.5719C70 27.1437 70 32.8926 70 44.3902V45.6098C70 57.1074 70 62.8563 66.4281 66.4281C62.8563 70 57.1074 70 45.6098 70H44.3902C32.8926 70 27.1437 70 23.5719 66.4281C20 62.8563 20 57.1074 20 45.6098V44.3902Z" fill="#E5F4F2"/>
<path opacity="0.2" d="M49.9018 39.0778C50.3597 39.9118 50.6005 40.8475 50.6021 41.7989V42.189C50.6037 42.5503 50.4814 42.9013 50.2557 43.1834C50.03 43.4656 49.7144 43.6618 49.3616 43.7396C47.9301 44.0595 46.4666 44.2139 44.9999 44.1998C43.5332 44.2139 42.0697 44.0595 40.6383 43.7396C40.2854 43.6618 39.9698 43.4656 39.7441 43.1834C39.5184 42.9013 39.3962 42.5503 39.3978 42.189V41.8789C39.3984 40.8969 39.6534 39.9319 40.1381 39.0778C36.3866 39.8481 33.7957 41.4987 33.7957 43.3995C33.7957 46.0505 38.8076 48.2013 44.9999 48.2013C51.1923 48.2013 56.2042 46.0505 56.2042 43.3995C56.2042 41.4987 53.6332 39.8581 49.9018 39.0778Z" fill="#009379"/>
<path d="M49.0815 51.0723L49.4717 53.4332" stroke="#009379" stroke-width="1.44817" stroke-linecap="round" stroke-linejoin="round"/>
<path d="M45 51.4025V54.6037" stroke="#009379" stroke-width="1.44817" stroke-linecap="round" stroke-linejoin="round"/>
<path d="M40.9185 51.0723L40.5283 53.4332" stroke="#009379" stroke-width="1.44817" stroke-linecap="round" stroke-linejoin="round"/>
<path d="M49.9018 39.0778C53.6332 39.8581 56.2042 41.4987 56.2042 43.3995C56.2042 46.0505 51.1923 48.2013 44.9999 48.2013C38.8076 48.2013 33.7957 46.0505 33.7957 43.3995C33.7957 41.4987 36.3866 39.8481 40.1381 39.0778" stroke="#009379" stroke-width="1.44817" stroke-linecap="round" stroke-linejoin="round"/>
<path d="M39.3977 42.1889C39.3961 42.5502 39.5184 42.9012 39.7441 43.1833C39.9698 43.4654 40.2853 43.6617 40.6382 43.7395C42.0697 44.0594 43.5331 44.2138 44.9999 44.1997C46.4666 44.2138 47.9301 44.0594 49.3615 43.7395C49.7144 43.6617 50.0299 43.4654 50.2556 43.1833C50.4814 42.9012 50.6036 42.5502 50.602 42.1889V41.7987C50.602 41.0571 50.4549 40.3229 50.169 39.6386C49.8831 38.9543 49.4641 38.3336 48.9365 37.8125C48.4088 37.2913 47.783 36.8802 47.0952 36.6028C46.4074 36.3254 45.6714 36.1873 44.9298 36.1966C41.8487 36.2366 39.3977 38.8076 39.3977 41.8788V42.1889Z" stroke="#009379" stroke-width="1.44817" stroke-linecap="round" stroke-linejoin="round"/>
<path d="M91.848 38.048H101.088V39.497H93.549V44.684H100.668V46.133H93.549V53H91.848V38.048ZM112.569 42.437V53H110.889V51.089C110.581 51.747 110.112 52.258 109.482 52.622C108.866 52.972 108.145 53.147 107.319 53.147C106.381 53.147 105.555 52.923 104.841 52.475C104.141 52.027 103.595 51.397 103.203 50.585C102.825 49.759 102.636 48.8 102.636 47.708C102.636 46.616 102.832 45.657 103.224 44.831C103.616 43.991 104.162 43.34 104.862 42.878C105.576 42.416 106.395 42.185 107.319 42.185C108.145 42.185 108.866 42.367 109.482 42.731C110.098 43.095 110.567 43.606 110.889 44.264V42.437H112.569ZM107.655 51.74C108.691 51.74 109.489 51.39 110.049 50.69C110.609 49.976 110.889 48.968 110.889 47.666C110.889 46.364 110.609 45.363 110.049 44.663C109.489 43.963 108.691 43.613 107.655 43.613C106.619 43.613 105.807 43.977 105.219 44.705C104.645 45.419 104.358 46.42 104.358 47.708C104.358 48.996 104.645 49.99 105.219 50.69C105.793 51.39 106.605 51.74 107.655 51.74ZM119.428 53.147C117.65 53.147 116.243 52.692 115.207 51.782L115.774 50.522C116.348 50.97 116.929 51.292 117.517 51.488C118.105 51.684 118.763 51.782 119.491 51.782C120.289 51.782 120.891 51.649 121.297 51.383C121.717 51.103 121.927 50.704 121.927 50.186C121.927 49.766 121.787 49.43 121.507 49.178C121.227 48.926 120.765 48.73 120.121 48.59L118.336 48.17C117.454 47.974 116.768 47.624 116.278 47.12C115.802 46.616 115.564 46.014 115.564 45.314C115.564 44.39 115.935 43.641 116.677 43.067C117.419 42.479 118.399 42.185 119.617 42.185C120.359 42.185 121.059 42.304 121.717 42.542C122.375 42.78 122.928 43.123 123.376 43.571L122.809 44.81C121.815 43.984 120.751 43.571 119.617 43.571C118.861 43.571 118.273 43.718 117.853 44.012C117.447 44.292 117.244 44.691 117.244 45.209C117.244 45.643 117.37 45.986 117.622 46.238C117.888 46.49 118.308 46.686 118.882 46.826L120.667 47.267C121.647 47.491 122.375 47.841 122.851 48.317C123.327 48.779 123.565 49.388 123.565 50.144C123.565 51.054 123.194 51.782 122.452 52.328C121.71 52.874 120.702 53.147 119.428 53.147ZM128.441 43.781V49.556C128.441 50.34 128.602 50.893 128.924 51.215C129.246 51.523 129.701 51.677 130.289 51.677C130.681 51.677 131.059 51.614 131.423 51.488V52.937C130.989 53.077 130.499 53.147 129.953 53.147C128.945 53.147 128.154 52.867 127.58 52.307C127.02 51.733 126.74 50.893 126.74 49.787V43.781H124.682V42.437H126.74V39.728L128.441 39.119V42.437H131.465V43.781H128.441ZM144.262 42.185C145.186 42.185 146.005 42.409 146.719 42.857C147.433 43.305 147.986 43.942 148.378 44.768C148.77 45.58 148.966 46.532 148.966 47.624C148.966 48.716 148.77 49.682 148.378 50.522C147.986 51.348 147.433 51.992 146.719 52.454C146.005 52.916 145.186 53.147 144.262 53.147C143.436 53.147 142.715 52.965 142.099 52.601C141.483 52.237 141.014 51.719 140.692 51.047V53H138.991V37.544H140.692V44.306C141 43.62 141.462 43.095 142.078 42.731C142.708 42.367 143.436 42.185 144.262 42.185ZM143.947 51.74C144.969 51.74 145.767 51.383 146.341 50.669C146.915 49.941 147.202 48.926 147.202 47.624C147.202 46.35 146.915 45.363 146.341 44.663C145.781 43.963 144.983 43.613 143.947 43.613C142.897 43.613 142.092 43.963 141.532 44.663C140.972 45.363 140.692 46.364 140.692 47.666C140.692 48.968 140.972 49.976 141.532 50.69C142.092 51.39 142.897 51.74 143.947 51.74ZM160.423 42.437V53H158.764V51.173C158.428 51.817 157.959 52.307 157.357 52.643C156.755 52.979 156.076 53.147 155.32 53.147C154.074 53.147 153.129 52.797 152.485 52.097C151.841 51.397 151.519 50.361 151.519 48.989V42.437H153.22V48.947C153.22 49.899 153.416 50.599 153.808 51.047C154.2 51.495 154.795 51.719 155.593 51.719C156.531 51.719 157.287 51.418 157.861 50.816C158.435 50.2 158.722 49.395 158.722 48.401V42.437H160.423ZM163.702 42.437H165.403V53H163.702V42.437ZM165.613 37.964V39.896H163.534V37.964H165.613ZM168.706 37.544H170.407V53H168.706V37.544ZM183.013 37.544V53H181.333V51.089C181.025 51.747 180.556 52.258 179.926 52.622C179.31 52.972 178.589 53.147 177.763 53.147C176.839 53.147 176.02 52.916 175.306 52.454C174.606 51.992 174.06 51.348 173.668 50.522C173.276 49.682 173.08 48.716 173.08 47.624C173.08 46.532 173.269 45.58 173.647 44.768C174.039 43.942 174.592 43.305 175.306 42.857C176.02 42.409 176.839 42.185 177.763 42.185C178.589 42.185 179.31 42.367 179.926 42.731C180.542 43.081 181.004 43.578 181.312 44.222V37.544H183.013ZM178.099 51.74C179.135 51.74 179.933 51.39 180.493 50.69C181.053 49.976 181.333 48.968 181.333 47.666C181.333 46.378 181.053 45.384 180.493 44.684C179.933 43.97 179.135 43.613 178.099 43.613C177.063 43.613 176.251 43.963 175.663 44.663C175.089 45.363 174.802 46.35 174.802 47.624C174.802 48.926 175.089 49.941 175.663 50.669C176.251 51.383 177.063 51.74 178.099 51.74ZM186.302 42.437H188.003V53H186.302V42.437ZM188.213 37.964V39.896H186.134V37.964H188.213ZM196.577 42.185C199.111 42.185 200.378 43.578 200.378 46.364V53H198.677V46.448C198.677 45.468 198.481 44.754 198.089 44.306C197.697 43.844 197.081 43.613 196.241 43.613C195.261 43.613 194.477 43.914 193.889 44.516C193.301 45.118 193.007 45.93 193.007 46.952V53H191.306V45.398C191.306 44.306 191.25 43.319 191.138 42.437H192.755L192.923 44.327C193.245 43.641 193.728 43.116 194.372 42.752C195.016 42.374 195.751 42.185 196.577 42.185ZM212.998 42.437V52.916C212.998 54.484 212.592 55.667 211.78 56.465C210.982 57.277 209.799 57.683 208.231 57.683C206.621 57.683 205.235 57.319 204.073 56.591L204.367 55.205C205.039 55.583 205.669 55.856 206.257 56.024C206.859 56.192 207.517 56.276 208.231 56.276C209.253 56.276 210.023 56.003 210.541 55.457C211.059 54.925 211.318 54.127 211.318 53.063V50.564C210.996 51.236 210.52 51.761 209.89 52.139C209.274 52.503 208.539 52.685 207.685 52.685C206.761 52.685 205.935 52.468 205.207 52.034C204.493 51.6 203.94 50.984 203.548 50.186C203.156 49.388 202.96 48.471 202.96 47.435C202.96 46.399 203.156 45.482 203.548 44.684C203.94 43.886 204.493 43.27 205.207 42.836C205.935 42.402 206.761 42.185 207.685 42.185C208.525 42.185 209.253 42.367 209.869 42.731C210.499 43.095 210.975 43.606 211.297 44.264V42.437H212.998ZM208.021 51.257C209.043 51.257 209.841 50.921 210.415 50.249C211.003 49.563 211.297 48.625 211.297 47.435C211.297 46.245 211.003 45.314 210.415 44.642C209.841 43.956 209.043 43.613 208.021 43.613C206.985 43.613 206.166 43.956 205.564 44.642C204.976 45.314 204.682 46.245 204.682 47.435C204.682 48.625 204.976 49.563 205.564 50.249C206.166 50.921 206.985 51.257 208.021 51.257Z" fill="#2D2D2D"/>
</svg>
