<svg width="315" height="90" viewBox="0 0 315 90" fill="none" xmlns="http://www.w3.org/2000/svg">
<rect x="0.5" y="0.5" width="314" height="89" rx="19.5" fill="white"/>
<rect x="0.5" y="0.5" width="314" height="89" rx="19.5" stroke="#E5F4F2"/>
<path d="M20 44.3902C20 32.8926 20 27.1437 23.5719 23.5719C27.1437 20 32.8926 20 44.3902 20H45.6098C57.1074 20 62.8563 20 66.4281 23.5719C70 27.1437 70 32.8926 70 44.3902V45.6098C70 57.1074 70 62.8563 66.4281 66.4281C62.8563 70 57.1074 70 45.6098 70H44.3902C32.8926 70 27.1437 70 23.5719 66.4281C20 62.8563 20 57.1074 20 45.6098V44.3902Z" fill="#E5F4F2"/>
<path opacity="0.2" d="M35.5063 39.658C35.4338 39.7825 35.3958 39.9241 35.3962 40.0682V49.9319C35.397 50.0744 35.4353 50.2142 35.5073 50.3371C35.5793 50.4601 35.6825 50.5618 35.8064 50.6322L44.6098 55.5841C44.7284 55.6519 44.8632 55.6865 44.9999 55.6841L45.0899 45.0001L35.5063 39.658Z" fill="#009379"/>
<path d="M54.6036 49.932V40.0682C54.6028 39.9257 54.5645 39.786 54.4925 39.663C54.4205 39.5401 54.3173 39.4383 54.1934 39.3679L45.39 34.4161C45.2714 34.3476 45.1369 34.3115 44.9999 34.3115C44.8629 34.3115 44.7284 34.3476 44.6097 34.4161L35.8064 39.3679C35.6825 39.4383 35.5793 39.5401 35.5073 39.663C35.4353 39.786 35.397 39.9257 35.3962 40.0682V49.932C35.397 50.0745 35.4353 50.2142 35.5073 50.3372C35.5793 50.4601 35.6825 50.5619 35.8064 50.6322L44.6097 55.5841C44.7284 55.6526 44.8629 55.6887 44.9999 55.6887C45.1369 55.6887 45.2714 55.6526 45.39 55.5841L54.1934 50.6322C54.3173 50.5619 54.4205 50.4601 54.4925 50.3372C54.5645 50.2142 54.6028 50.0745 54.6036 49.932V49.932Z" stroke="#009379" stroke-width="1.44817" stroke-linecap="round" stroke-linejoin="round"/>
<path d="M49.9017 47.4509V42.249L40.198 36.8969" stroke="#009379" stroke-width="1.44817" stroke-linecap="round" stroke-linejoin="round"/>
<path d="M54.4936 39.658L45.09 45.0001L35.5063 39.658" stroke="#009379" stroke-width="1.44817" stroke-linecap="round" stroke-linejoin="round"/>
<path d="M45.09 45.0001L45 55.6842" stroke="#009379" stroke-width="1.44817" stroke-linecap="round" stroke-linejoin="round"/>
<path d="M103.839 38.048V53H102.495L93.465 40.967V53H91.848V38.048H93.171L102.201 50.081V38.048H103.839ZM111.674 53.147C110.68 53.147 109.805 52.923 109.049 52.475C108.293 52.027 107.705 51.39 107.285 50.564C106.879 49.738 106.676 48.772 106.676 47.666C106.676 46.56 106.879 45.594 107.285 44.768C107.705 43.942 108.293 43.305 109.049 42.857C109.805 42.409 110.68 42.185 111.674 42.185C112.668 42.185 113.543 42.409 114.299 42.857C115.055 43.305 115.636 43.942 116.042 44.768C116.462 45.594 116.672 46.56 116.672 47.666C116.672 48.772 116.462 49.738 116.042 50.564C115.636 51.39 115.055 52.027 114.299 52.475C113.543 52.923 112.668 53.147 111.674 53.147ZM111.674 51.74C112.724 51.74 113.529 51.397 114.089 50.711C114.649 50.011 114.929 48.996 114.929 47.666C114.929 46.378 114.642 45.384 114.068 44.684C113.494 43.97 112.696 43.613 111.674 43.613C110.638 43.613 109.833 43.97 109.259 44.684C108.685 45.384 108.398 46.378 108.398 47.666C108.398 48.996 108.678 50.011 109.238 50.711C109.812 51.397 110.624 51.74 111.674 51.74ZM129.23 53.147C128.208 53.147 127.312 52.923 126.542 52.475C125.786 52.027 125.198 51.397 124.778 50.585C124.372 49.759 124.169 48.8 124.169 47.708C124.169 46.616 124.379 45.657 124.799 44.831C125.219 43.991 125.814 43.34 126.584 42.878C127.368 42.416 128.278 42.185 129.314 42.185C130.028 42.185 130.714 42.311 131.372 42.563C132.044 42.801 132.597 43.137 133.031 43.571L132.464 44.831C131.932 44.411 131.414 44.103 130.91 43.907C130.42 43.711 129.916 43.613 129.398 43.613C128.32 43.613 127.473 43.977 126.857 44.705C126.241 45.419 125.933 46.42 125.933 47.708C125.933 48.982 126.234 49.976 126.836 50.69C127.452 51.39 128.306 51.74 129.398 51.74C129.916 51.74 130.42 51.642 130.91 51.446C131.414 51.25 131.932 50.942 132.464 50.522L133.031 51.782C132.583 52.202 132.016 52.538 131.33 52.79C130.658 53.028 129.958 53.147 129.23 53.147ZM139.565 53.147C138.571 53.147 137.696 52.923 136.94 52.475C136.184 52.027 135.596 51.39 135.176 50.564C134.77 49.738 134.567 48.772 134.567 47.666C134.567 46.56 134.77 45.594 135.176 44.768C135.596 43.942 136.184 43.305 136.94 42.857C137.696 42.409 138.571 42.185 139.565 42.185C140.559 42.185 141.434 42.409 142.19 42.857C142.946 43.305 143.527 43.942 143.933 44.768C144.353 45.594 144.563 46.56 144.563 47.666C144.563 48.772 144.353 49.738 143.933 50.564C143.527 51.39 142.946 52.027 142.19 52.475C141.434 52.923 140.559 53.147 139.565 53.147ZM139.565 51.74C140.615 51.74 141.42 51.397 141.98 50.711C142.54 50.011 142.82 48.996 142.82 47.666C142.82 46.378 142.533 45.384 141.959 44.684C141.385 43.97 140.587 43.613 139.565 43.613C138.529 43.613 137.724 43.97 137.15 44.684C136.576 45.384 136.289 46.378 136.289 47.666C136.289 48.996 136.569 50.011 137.129 50.711C137.703 51.397 138.515 51.74 139.565 51.74ZM156.517 37.544V53H154.837V51.089C154.529 51.747 154.06 52.258 153.43 52.622C152.814 52.972 152.093 53.147 151.267 53.147C150.343 53.147 149.524 52.916 148.81 52.454C148.11 51.992 147.564 51.348 147.172 50.522C146.78 49.682 146.584 48.716 146.584 47.624C146.584 46.532 146.773 45.58 147.151 44.768C147.543 43.942 148.096 43.305 148.81 42.857C149.524 42.409 150.343 42.185 151.267 42.185C152.093 42.185 152.814 42.367 153.43 42.731C154.046 43.081 154.508 43.578 154.816 44.222V37.544H156.517ZM151.603 51.74C152.639 51.74 153.437 51.39 153.997 50.69C154.557 49.976 154.837 48.968 154.837 47.666C154.837 46.378 154.557 45.384 153.997 44.684C153.437 43.97 152.639 43.613 151.603 43.613C150.567 43.613 149.755 43.963 149.167 44.663C148.593 45.363 148.306 46.35 148.306 47.624C148.306 48.926 148.593 49.941 149.167 50.669C149.755 51.383 150.567 51.74 151.603 51.74ZM168.647 47.666H160.898C160.912 49.01 161.22 50.025 161.822 50.711C162.438 51.397 163.327 51.74 164.489 51.74C165.721 51.74 166.855 51.327 167.891 50.501L168.458 51.74C167.996 52.174 167.401 52.517 166.673 52.769C165.959 53.021 165.224 53.147 164.468 53.147C162.816 53.147 161.521 52.664 160.583 51.698C159.645 50.718 159.176 49.381 159.176 47.687C159.176 46.609 159.386 45.657 159.806 44.831C160.226 43.991 160.814 43.34 161.57 42.878C162.326 42.416 163.187 42.185 164.153 42.185C165.553 42.185 166.652 42.647 167.45 43.571C168.248 44.481 168.647 45.741 168.647 47.351V47.666ZM164.174 43.508C163.292 43.508 162.571 43.774 162.011 44.306C161.465 44.838 161.115 45.587 160.961 46.553H167.114C167.03 45.559 166.736 44.803 166.232 44.285C165.742 43.767 165.056 43.508 164.174 43.508ZM181.975 42.185C184.509 42.185 185.776 43.578 185.776 46.364V53H184.075V46.448C184.075 45.468 183.879 44.754 183.487 44.306C183.095 43.844 182.479 43.613 181.639 43.613C180.659 43.613 179.875 43.914 179.287 44.516C178.699 45.118 178.405 45.93 178.405 46.952V53H176.704V45.398C176.704 44.306 176.648 43.319 176.536 42.437H178.153L178.321 44.327C178.643 43.641 179.126 43.116 179.77 42.752C180.414 42.374 181.149 42.185 181.975 42.185ZM197.83 47.666H190.081C190.095 49.01 190.403 50.025 191.005 50.711C191.621 51.397 192.51 51.74 193.672 51.74C194.904 51.74 196.038 51.327 197.074 50.501L197.641 51.74C197.179 52.174 196.584 52.517 195.856 52.769C195.142 53.021 194.407 53.147 193.651 53.147C191.999 53.147 190.704 52.664 189.766 51.698C188.828 50.718 188.359 49.381 188.359 47.687C188.359 46.609 188.569 45.657 188.989 44.831C189.409 43.991 189.997 43.34 190.753 42.878C191.509 42.416 192.37 42.185 193.336 42.185C194.736 42.185 195.835 42.647 196.633 43.571C197.431 44.481 197.83 45.741 197.83 47.351V47.666ZM193.357 43.508C192.475 43.508 191.754 43.774 191.194 44.306C190.648 44.838 190.298 45.587 190.144 46.553H196.297C196.213 45.559 195.919 44.803 195.415 44.285C194.925 43.767 194.239 43.508 193.357 43.508ZM209.252 47.666H201.503C201.517 49.01 201.825 50.025 202.427 50.711C203.043 51.397 203.932 51.74 205.094 51.74C206.326 51.74 207.46 51.327 208.496 50.501L209.063 51.74C208.601 52.174 208.006 52.517 207.278 52.769C206.564 53.021 205.829 53.147 205.073 53.147C203.421 53.147 202.126 52.664 201.188 51.698C200.25 50.718 199.781 49.381 199.781 47.687C199.781 46.609 199.991 45.657 200.411 44.831C200.831 43.991 201.419 43.34 202.175 42.878C202.931 42.416 203.792 42.185 204.758 42.185C206.158 42.185 207.257 42.647 208.055 43.571C208.853 44.481 209.252 45.741 209.252 47.351V47.666ZM204.779 43.508C203.897 43.508 203.176 43.774 202.616 44.306C202.07 44.838 201.72 45.587 201.566 46.553H207.719C207.635 45.559 207.341 44.803 206.837 44.285C206.347 43.767 205.661 43.508 204.779 43.508ZM221.137 37.544V53H219.457V51.089C219.149 51.747 218.68 52.258 218.05 52.622C217.434 52.972 216.713 53.147 215.887 53.147C214.963 53.147 214.144 52.916 213.43 52.454C212.73 51.992 212.184 51.348 211.792 50.522C211.4 49.682 211.204 48.716 211.204 47.624C211.204 46.532 211.393 45.58 211.771 44.768C212.163 43.942 212.716 43.305 213.43 42.857C214.144 42.409 214.963 42.185 215.887 42.185C216.713 42.185 217.434 42.367 218.05 42.731C218.666 43.081 219.128 43.578 219.436 44.222V37.544H221.137ZM216.223 51.74C217.259 51.74 218.057 51.39 218.617 50.69C219.177 49.976 219.457 48.968 219.457 47.666C219.457 46.378 219.177 45.384 218.617 44.684C218.057 43.97 217.259 43.613 216.223 43.613C215.187 43.613 214.375 43.963 213.787 44.663C213.213 45.363 212.926 46.35 212.926 47.624C212.926 48.926 213.213 49.941 213.787 50.669C214.375 51.383 215.187 51.74 216.223 51.74ZM233.267 47.666H225.518C225.532 49.01 225.84 50.025 226.442 50.711C227.058 51.397 227.947 51.74 229.109 51.74C230.341 51.74 231.475 51.327 232.511 50.501L233.078 51.74C232.616 52.174 232.021 52.517 231.293 52.769C230.579 53.021 229.844 53.147 229.088 53.147C227.436 53.147 226.141 52.664 225.203 51.698C224.265 50.718 223.796 49.381 223.796 47.687C223.796 46.609 224.006 45.657 224.426 44.831C224.846 43.991 225.434 43.34 226.19 42.878C226.946 42.416 227.807 42.185 228.773 42.185C230.173 42.185 231.272 42.647 232.07 43.571C232.868 44.481 233.267 45.741 233.267 47.351V47.666ZM228.794 43.508C227.912 43.508 227.191 43.774 226.631 44.306C226.085 44.838 225.735 45.587 225.581 46.553H231.734C231.65 45.559 231.356 44.803 230.852 44.285C230.362 43.767 229.676 43.508 228.794 43.508ZM245.152 37.544V53H243.472V51.089C243.164 51.747 242.695 52.258 242.065 52.622C241.449 52.972 240.728 53.147 239.902 53.147C238.978 53.147 238.159 52.916 237.445 52.454C236.745 51.992 236.199 51.348 235.807 50.522C235.415 49.682 235.219 48.716 235.219 47.624C235.219 46.532 235.408 45.58 235.786 44.768C236.178 43.942 236.731 43.305 237.445 42.857C238.159 42.409 238.978 42.185 239.902 42.185C240.728 42.185 241.449 42.367 242.065 42.731C242.681 43.081 243.143 43.578 243.451 44.222V37.544H245.152ZM240.238 51.74C241.274 51.74 242.072 51.39 242.632 50.69C243.192 49.976 243.472 48.968 243.472 47.666C243.472 46.378 243.192 45.384 242.632 44.684C242.072 43.97 241.274 43.613 240.238 43.613C239.202 43.613 238.39 43.963 237.802 44.663C237.228 45.363 236.941 46.35 236.941 47.624C236.941 48.926 237.228 49.941 237.802 50.669C238.39 51.383 239.202 51.74 240.238 51.74Z" fill="#2D2D2D"/>
</svg>
