<svg width="315" height="90" viewBox="0 0 315 90" fill="none" xmlns="http://www.w3.org/2000/svg">
<rect x="0.5" y="0.5" width="314" height="89" rx="19.5" fill="white"/>
<rect x="0.5" y="0.5" width="314" height="89" rx="19.5" stroke="#E5F4F2"/>
<path d="M20 44.3902C20 32.8926 20 27.1437 23.5719 23.5719C27.1437 20 32.8926 20 44.3902 20H45.6098C57.1074 20 62.8563 20 66.4281 23.5719C70 27.1437 70 32.8926 70 44.3902V45.6098C70 57.1074 70 62.8563 66.4281 66.4281C62.8563 70 57.1074 70 45.6098 70H44.3902C32.8926 70 27.1437 70 23.5719 66.4281C20 62.8563 20 57.1074 20 45.6098V44.3902Z" fill="#E5F4F2"/>
<path opacity="0.2" d="M53.003 36.1967H49.8018C49.3598 36.1967 49.0015 36.555 49.0015 36.997V40.1982C49.0015 40.6402 49.3598 40.9985 49.8018 40.9985H53.003C53.445 40.9985 53.8033 40.6402 53.8033 40.1982V36.997C53.8033 36.555 53.445 36.1967 53.003 36.1967Z" fill="#009379"/>
<path opacity="0.2" d="M36.9968 36.242H40.1981C40.6151 36.242 40.9531 36.58 40.9531 36.997V40.1982C40.9531 40.6152 40.6151 40.9533 40.1981 40.9533H36.9968C36.5798 40.9533 36.2418 40.6152 36.2418 40.1982V36.997C36.2418 36.58 36.5798 36.242 36.9968 36.242Z" fill="#009379" stroke="#009379" stroke-width="0.0905107"/>
<path opacity="0.2" d="M49.8018 49.0467H53.003C53.42 49.0467 53.758 49.3848 53.758 49.8018V53.003C53.758 53.42 53.42 53.758 53.003 53.758H49.8018C49.3848 53.758 49.0467 53.42 49.0467 53.003V49.8018C49.0467 49.3848 49.3848 49.0467 49.8018 49.0467Z" fill="#009379" stroke="#009379" stroke-width="0.0905107"/>
<path opacity="0.2" d="M36.9968 49.0467H40.1981C40.6151 49.0467 40.9531 49.3848 40.9531 49.8018V53.003C40.9531 53.42 40.6151 53.758 40.1981 53.758H36.9968C36.5798 53.758 36.2418 53.42 36.2418 53.003V49.8018C36.2418 49.3848 36.5798 49.0467 36.9968 49.0467Z" fill="#009379" stroke="#009379" stroke-width="0.0905107"/>
<path d="M53.003 36.1967H49.8018C49.3598 36.1967 49.0015 36.555 49.0015 36.997V40.1982C49.0015 40.6402 49.3598 40.9985 49.8018 40.9985H53.003C53.445 40.9985 53.8033 40.6402 53.8033 40.1982V36.997C53.8033 36.555 53.445 36.1967 53.003 36.1967Z" stroke="#009379" stroke-width="1.44817" stroke-linecap="round" stroke-linejoin="round"/>
<path d="M40.1981 36.1967H36.9968C36.5548 36.1967 36.1965 36.555 36.1965 36.997V40.1982C36.1965 40.6402 36.5548 40.9985 36.9968 40.9985H40.1981C40.6401 40.9985 40.9984 40.6402 40.9984 40.1982V36.997C40.9984 36.555 40.6401 36.1967 40.1981 36.1967Z" stroke="#009379" stroke-width="1.44817" stroke-linecap="round" stroke-linejoin="round"/>
<path d="M53.003 49.0015H49.8018C49.3598 49.0015 49.0015 49.3598 49.0015 49.8018V53.003C49.0015 53.445 49.3598 53.8033 49.8018 53.8033H53.003C53.445 53.8033 53.8033 53.445 53.8033 53.003V49.8018C53.8033 49.3598 53.445 49.0015 53.003 49.0015Z" stroke="#009379" stroke-width="1.44817" stroke-linecap="round" stroke-linejoin="round"/>
<path d="M40.1981 49.0015H36.9968C36.5548 49.0015 36.1965 49.3598 36.1965 49.8018V53.003C36.1965 53.445 36.5548 53.8033 36.9968 53.8033H40.1981C40.6401 53.8033 40.9984 53.445 40.9984 53.003V49.8018C40.9984 49.3598 40.6401 49.0015 40.1981 49.0015Z" stroke="#009379" stroke-width="1.44817" stroke-linecap="round" stroke-linejoin="round"/>
<path d="M38.5977 49.0016V40.9985" stroke="#009379" stroke-width="1.44817" stroke-linecap="round" stroke-linejoin="round"/>
<path d="M49.0013 51.4025H40.9983" stroke="#009379" stroke-width="1.44817" stroke-linecap="round" stroke-linejoin="round"/>
<path d="M51.4023 40.9985V49.0016" stroke="#009379" stroke-width="1.44817" stroke-linecap="round" stroke-linejoin="round"/>
<path d="M40.9983 38.5975H49.0013" stroke="#009379" stroke-width="1.44817" stroke-linecap="round" stroke-linejoin="round"/>
<path d="M103.587 53H101.76L99.912 48.023C99.688 47.407 99.373 46.994 98.967 46.784C98.575 46.574 98.015 46.469 97.287 46.469H93.549V53H91.848V38.048H97.791C99.401 38.048 100.633 38.405 101.487 39.119C102.355 39.833 102.789 40.862 102.789 42.206C102.789 43.186 102.53 44.012 102.012 44.684C101.508 45.342 100.773 45.811 99.807 46.091C100.241 46.161 100.612 46.35 100.92 46.658C101.228 46.952 101.487 47.379 101.697 47.939L103.587 53ZM97.644 45.041C99.94 45.041 101.088 44.103 101.088 42.227C101.088 41.303 100.808 40.617 100.248 40.169C99.688 39.707 98.82 39.476 97.644 39.476H93.549V45.041H97.644ZM115.04 47.666H107.291C107.305 49.01 107.613 50.025 108.215 50.711C108.831 51.397 109.72 51.74 110.882 51.74C112.114 51.74 113.248 51.327 114.284 50.501L114.851 51.74C114.389 52.174 113.794 52.517 113.066 52.769C112.352 53.021 111.617 53.147 110.861 53.147C109.209 53.147 107.914 52.664 106.976 51.698C106.038 50.718 105.569 49.381 105.569 47.687C105.569 46.609 105.779 45.657 106.199 44.831C106.619 43.991 107.207 43.34 107.963 42.878C108.719 42.416 109.58 42.185 110.546 42.185C111.946 42.185 113.045 42.647 113.843 43.571C114.641 44.481 115.04 45.741 115.04 47.351V47.666ZM110.567 43.508C109.685 43.508 108.964 43.774 108.404 44.306C107.858 44.838 107.508 45.587 107.354 46.553H113.507C113.423 45.559 113.129 44.803 112.625 44.285C112.135 43.767 111.449 43.508 110.567 43.508ZM121.191 53.147C119.413 53.147 118.006 52.692 116.97 51.782L117.537 50.522C118.111 50.97 118.692 51.292 119.28 51.488C119.868 51.684 120.526 51.782 121.254 51.782C122.052 51.782 122.654 51.649 123.06 51.383C123.48 51.103 123.69 50.704 123.69 50.186C123.69 49.766 123.55 49.43 123.27 49.178C122.99 48.926 122.528 48.73 121.884 48.59L120.099 48.17C119.217 47.974 118.531 47.624 118.041 47.12C117.565 46.616 117.327 46.014 117.327 45.314C117.327 44.39 117.698 43.641 118.44 43.067C119.182 42.479 120.162 42.185 121.38 42.185C122.122 42.185 122.822 42.304 123.48 42.542C124.138 42.78 124.691 43.123 125.139 43.571L124.572 44.81C123.578 43.984 122.514 43.571 121.38 43.571C120.624 43.571 120.036 43.718 119.616 44.012C119.21 44.292 119.007 44.691 119.007 45.209C119.007 45.643 119.133 45.986 119.385 46.238C119.651 46.49 120.071 46.686 120.645 46.826L122.43 47.267C123.41 47.491 124.138 47.841 124.614 48.317C125.09 48.779 125.328 49.388 125.328 50.144C125.328 51.054 124.957 51.782 124.215 52.328C123.473 52.874 122.465 53.147 121.191 53.147ZM133.31 42.185C134.234 42.185 135.053 42.416 135.767 42.878C136.481 43.34 137.034 43.991 137.426 44.831C137.818 45.657 138.014 46.616 138.014 47.708C138.014 48.8 137.818 49.759 137.426 50.585C137.034 51.397 136.481 52.027 135.767 52.475C135.067 52.923 134.248 53.147 133.31 53.147C132.484 53.147 131.763 52.965 131.147 52.601C130.531 52.237 130.062 51.719 129.74 51.047V57.536H128.039V45.398C128.039 44.306 127.983 43.319 127.871 42.437H129.488L129.656 44.474C129.95 43.746 130.412 43.186 131.042 42.794C131.686 42.388 132.442 42.185 133.31 42.185ZM132.995 51.74C134.031 51.74 134.829 51.39 135.389 50.69C135.963 49.99 136.25 48.996 136.25 47.708C136.25 46.42 135.963 45.419 135.389 44.705C134.815 43.977 134.017 43.613 132.995 43.613C131.945 43.613 131.14 43.963 130.58 44.663C130.02 45.363 129.74 46.364 129.74 47.666C129.74 48.968 130.02 49.976 130.58 50.69C131.14 51.39 131.945 51.74 132.995 51.74ZM144.999 53.147C144.005 53.147 143.13 52.923 142.374 52.475C141.618 52.027 141.03 51.39 140.61 50.564C140.204 49.738 140.001 48.772 140.001 47.666C140.001 46.56 140.204 45.594 140.61 44.768C141.03 43.942 141.618 43.305 142.374 42.857C143.13 42.409 144.005 42.185 144.999 42.185C145.993 42.185 146.868 42.409 147.624 42.857C148.38 43.305 148.961 43.942 149.367 44.768C149.787 45.594 149.997 46.56 149.997 47.666C149.997 48.772 149.787 49.738 149.367 50.564C148.961 51.39 148.38 52.027 147.624 52.475C146.868 52.923 145.993 53.147 144.999 53.147ZM144.999 51.74C146.049 51.74 146.854 51.397 147.414 50.711C147.974 50.011 148.254 48.996 148.254 47.666C148.254 46.378 147.967 45.384 147.393 44.684C146.819 43.97 146.021 43.613 144.999 43.613C143.963 43.613 143.158 43.97 142.584 44.684C142.01 45.384 141.723 46.378 141.723 47.666C141.723 48.996 142.003 50.011 142.563 50.711C143.137 51.397 143.949 51.74 144.999 51.74ZM157.92 42.185C160.454 42.185 161.721 43.578 161.721 46.364V53H160.02V46.448C160.02 45.468 159.824 44.754 159.432 44.306C159.04 43.844 158.424 43.613 157.584 43.613C156.604 43.613 155.82 43.914 155.232 44.516C154.644 45.118 154.35 45.93 154.35 46.952V53H152.649V45.398C152.649 44.306 152.593 43.319 152.481 42.437H154.098L154.266 44.327C154.588 43.641 155.071 43.116 155.715 42.752C156.359 42.374 157.094 42.185 157.92 42.185ZM168.503 53.147C166.725 53.147 165.318 52.692 164.282 51.782L164.849 50.522C165.423 50.97 166.004 51.292 166.592 51.488C167.18 51.684 167.838 51.782 168.566 51.782C169.364 51.782 169.966 51.649 170.372 51.383C170.792 51.103 171.002 50.704 171.002 50.186C171.002 49.766 170.862 49.43 170.582 49.178C170.302 48.926 169.84 48.73 169.196 48.59L167.411 48.17C166.529 47.974 165.843 47.624 165.353 47.12C164.877 46.616 164.639 46.014 164.639 45.314C164.639 44.39 165.01 43.641 165.752 43.067C166.494 42.479 167.474 42.185 168.692 42.185C169.434 42.185 170.134 42.304 170.792 42.542C171.45 42.78 172.003 43.123 172.451 43.571L171.884 44.81C170.89 43.984 169.826 43.571 168.692 43.571C167.936 43.571 167.348 43.718 166.928 44.012C166.522 44.292 166.319 44.691 166.319 45.209C166.319 45.643 166.445 45.986 166.697 46.238C166.963 46.49 167.383 46.686 167.957 46.826L169.742 47.267C170.722 47.491 171.45 47.841 171.926 48.317C172.402 48.779 172.64 49.388 172.64 50.144C172.64 51.054 172.269 51.782 171.527 52.328C170.785 52.874 169.777 53.147 168.503 53.147ZM175.351 42.437H177.052V53H175.351V42.437ZM177.262 37.964V39.896H175.183V37.964H177.262ZM189.637 42.458L185.08 53H183.463L178.969 42.458H180.754L184.324 51.152L187.936 42.458H189.637ZM200.229 47.666H192.48C192.494 49.01 192.802 50.025 193.404 50.711C194.02 51.397 194.909 51.74 196.071 51.74C197.303 51.74 198.437 51.327 199.473 50.501L200.04 51.74C199.578 52.174 198.983 52.517 198.255 52.769C197.541 53.021 196.806 53.147 196.05 53.147C194.398 53.147 193.103 52.664 192.165 51.698C191.227 50.718 190.758 49.381 190.758 47.687C190.758 46.609 190.968 45.657 191.388 44.831C191.808 43.991 192.396 43.34 193.152 42.878C193.908 42.416 194.769 42.185 195.735 42.185C197.135 42.185 198.234 42.647 199.032 43.571C199.83 44.481 200.229 45.741 200.229 47.351V47.666ZM195.756 43.508C194.874 43.508 194.153 43.774 193.593 44.306C193.047 44.838 192.697 45.587 192.543 46.553H198.696C198.612 45.559 198.318 44.803 197.814 44.285C197.324 43.767 196.638 43.508 195.756 43.508ZM208.082 42.185C210.616 42.185 211.883 43.578 211.883 46.364V53H210.182V46.448C210.182 45.468 209.986 44.754 209.594 44.306C209.202 43.844 208.586 43.613 207.746 43.613C206.766 43.613 205.982 43.914 205.394 44.516C204.806 45.118 204.512 45.93 204.512 46.952V53H202.811V45.398C202.811 44.306 202.755 43.319 202.643 42.437H204.26L204.428 44.327C204.75 43.641 205.233 43.116 205.877 42.752C206.521 42.374 207.256 42.185 208.082 42.185ZM223.936 47.666H216.187C216.201 49.01 216.509 50.025 217.111 50.711C217.727 51.397 218.616 51.74 219.778 51.74C221.01 51.74 222.144 51.327 223.18 50.501L223.747 51.74C223.285 52.174 222.69 52.517 221.962 52.769C221.248 53.021 220.513 53.147 219.757 53.147C218.105 53.147 216.81 52.664 215.872 51.698C214.934 50.718 214.465 49.381 214.465 47.687C214.465 46.609 214.675 45.657 215.095 44.831C215.515 43.991 216.103 43.34 216.859 42.878C217.615 42.416 218.476 42.185 219.442 42.185C220.842 42.185 221.941 42.647 222.739 43.571C223.537 44.481 223.936 45.741 223.936 47.351V47.666ZM219.463 43.508C218.581 43.508 217.86 43.774 217.3 44.306C216.754 44.838 216.404 45.587 216.25 46.553H222.403C222.319 45.559 222.025 44.803 221.521 44.285C221.031 43.767 220.345 43.508 219.463 43.508ZM230.088 53.147C228.31 53.147 226.903 52.692 225.867 51.782L226.434 50.522C227.008 50.97 227.589 51.292 228.177 51.488C228.765 51.684 229.423 51.782 230.151 51.782C230.949 51.782 231.551 51.649 231.957 51.383C232.377 51.103 232.587 50.704 232.587 50.186C232.587 49.766 232.447 49.43 232.167 49.178C231.887 48.926 231.425 48.73 230.781 48.59L228.996 48.17C228.114 47.974 227.428 47.624 226.938 47.12C226.462 46.616 226.224 46.014 226.224 45.314C226.224 44.39 226.595 43.641 227.337 43.067C228.079 42.479 229.059 42.185 230.277 42.185C231.019 42.185 231.719 42.304 232.377 42.542C233.035 42.78 233.588 43.123 234.036 43.571L233.469 44.81C232.475 43.984 231.411 43.571 230.277 43.571C229.521 43.571 228.933 43.718 228.513 44.012C228.107 44.292 227.904 44.691 227.904 45.209C227.904 45.643 228.03 45.986 228.282 46.238C228.548 46.49 228.968 46.686 229.542 46.826L231.327 47.267C232.307 47.491 233.035 47.841 233.511 48.317C233.987 48.779 234.225 49.388 234.225 50.144C234.225 51.054 233.854 51.782 233.112 52.328C232.37 52.874 231.362 53.147 230.088 53.147ZM240.506 53.147C238.728 53.147 237.321 52.692 236.285 51.782L236.852 50.522C237.426 50.97 238.007 51.292 238.595 51.488C239.183 51.684 239.841 51.782 240.569 51.782C241.367 51.782 241.969 51.649 242.375 51.383C242.795 51.103 243.005 50.704 243.005 50.186C243.005 49.766 242.865 49.43 242.585 49.178C242.305 48.926 241.843 48.73 241.199 48.59L239.414 48.17C238.532 47.974 237.846 47.624 237.356 47.12C236.88 46.616 236.642 46.014 236.642 45.314C236.642 44.39 237.013 43.641 237.755 43.067C238.497 42.479 239.477 42.185 240.695 42.185C241.437 42.185 242.137 42.304 242.795 42.542C243.453 42.78 244.006 43.123 244.454 43.571L243.887 44.81C242.893 43.984 241.829 43.571 240.695 43.571C239.939 43.571 239.351 43.718 238.931 44.012C238.525 44.292 238.322 44.691 238.322 45.209C238.322 45.643 238.448 45.986 238.7 46.238C238.966 46.49 239.386 46.686 239.96 46.826L241.745 47.267C242.725 47.491 243.453 47.841 243.929 48.317C244.405 48.779 244.643 49.388 244.643 50.144C244.643 51.054 244.272 51.782 243.53 52.328C242.788 52.874 241.78 53.147 240.506 53.147Z" fill="#2D2D2D"/>
</svg>
